<?xml version="1.0" encoding="UTF-8" standalone="no"?>
<!-- Created with Inkscape (http://www.inkscape.org/) -->

<svg
   xmlns:dc="http://purl.org/dc/elements/1.1/"
   xmlns:cc="http://creativecommons.org/ns#"
   xmlns:rdf="http://www.w3.org/1999/02/22-rdf-syntax-ns#"
   xmlns:svg="http://www.w3.org/2000/svg"
   xmlns="http://www.w3.org/2000/svg"
   xmlns:sodipodi="http://sodipodi.sourceforge.net/DTD/sodipodi-0.dtd"
   xmlns:inkscape="http://www.inkscape.org/namespaces/inkscape"
   id="svg2"
   version="1.1"
   inkscape:version="0.48.5 r10040"
   width="116.52887"
   height="47.829625"
   xml:space="preserve"
   sodipodi:docname="New document 1"><metadata
     id="metadata8"><rdf:RDF><cc:Work
         rdf:about=""><dc:format>image/svg+xml</dc:format><dc:type
           rdf:resource="http://purl.org/dc/dcmitype/StillImage" /><dc:title></dc:title></cc:Work></rdf:RDF></metadata><defs
     id="defs6"><clipPath
       clipPathUnits="userSpaceOnUse"
       id="clipPath16"><path
         d="m 0,38.264 93.223,0 L 93.223,0 0,0 0,38.264 z"
         id="path18" /></clipPath></defs><sodipodi:namedview
     pagecolor="#ffffff"
     bordercolor="#666666"
     borderopacity="1"
     objecttolerance="10"
     gridtolerance="10"
     guidetolerance="10"
     inkscape:pageopacity="0"
     inkscape:pageshadow="2"
     inkscape:window-width="961"
     inkscape:window-height="692"
     id="namedview4"
     showgrid="false"
     inkscape:zoom="2.9863844"
     inkscape:cx="58.264435"
     inkscape:cy="23.914812"
     inkscape:window-x="0"
     inkscape:window-y="24"
     inkscape:window-maximized="0"
     inkscape:current-layer="g10" /><g
     id="g10"
     inkscape:groupmode="layer"
     inkscape:label="ELL_logo_2_1"
     transform="matrix(1.25,0,0,-1.25,0,47.829625)"><g
       id="g12"><g
         id="g14"
         clip-path="url(#clipPath16)"><g
           id="g20"
           transform="translate(91.5103,0)"><path
             d="m 0,0 c 0.942,0 1.713,0.769 1.713,1.712 l 0,34.839 c 0,0.942 -0.771,1.713 -1.713,1.713 l -89.799,0 c -0.942,0 -1.711,-0.771 -1.711,-1.713 l 0,-34.839 C -91.51,0.769 -90.741,0 -89.799,0 L 0,0 z"
             style="fill:#1b5c29;fill-opacity:1;fill-rule:nonzero;stroke:none"
             id="path22" /></g><g
           id="g24"
           transform="translate(25.1421,24.6841)"><path
             d="m 0,0 -12.046,-5.24 c -0.35,-0.151 -0.636,-0.583 -0.636,-0.965 l 0,-3.996 3.019,-3.451 0,4.806 c 0,0.302 0.227,0.674 0.498,0.813 L 3.06,-1.778 0.048,0.022 0,0 z"
             style="fill:#ffffff;fill-opacity:1;fill-rule:nonzero;stroke:none"
             id="path26" /></g><g
           id="g28"
           transform="translate(18.5757,25.1235)"><path
             d="M 0,0 -8.837,-2.675 C -9.208,-2.789 -9.51,-3.195 -9.51,-3.582 l 0,-3.146 2.013,-2.323 0,3.767 c 0,0.298 0.236,0.638 0.514,0.742 L 1.926,-1.197 0.047,0.012 0,0 z"
             style="fill:#ffffff;fill-opacity:1;fill-rule:nonzero;stroke:none"
             id="path30" /></g><g
           id="g32"
           transform="translate(19.6582,27.8301)"><path
             d="m 0,0 -12.312,-3.326 c -0.375,-0.1 -0.68,-0.498 -0.68,-0.888 l -10e-4,-2.464 1.519,-1.753 0,3.118 c 0,0.296 0.237,0.611 0.521,0.689 L 1.901,-1.026 0.042,0.012 0,0 z"
             style="fill:#ffffff;fill-opacity:1;fill-rule:nonzero;stroke:none"
             id="path34" /></g><g
           id="g36"
           transform="translate(33.2764,14.9399)"><path
             d="m 0,0 0,8.664 4.728,0 0,-1.332 -2.916,0 0,-2.136 2.688,0 0,-1.332 -2.688,0 0,-2.532 3.012,0 L 4.824,0 0,0 z"
             style="fill:#ffffff;fill-opacity:1;fill-rule:nonzero;stroke:none"
             id="path38" /></g><path
           d="m 41.028,14.94 -1.692,0 0,8.664 1.692,0 0,-8.664 z"
           style="fill:#ffffff;fill-opacity:1;fill-rule:nonzero;stroke:none"
           id="path40" /><g
           id="g42"
           transform="translate(45.3965,18.6479)"><path
             d="M 0,0 C 0,0.588 0.023,1.428 -0.78,1.428 -1.56,1.428 -1.548,0.516 -1.548,0 L 0,0 z m -1.548,-0.948 c 0,-0.72 0.024,-1.8 0.768,-1.8 0.6,0 0.72,0.576 0.72,1.08 l 1.716,0 C 1.632,-2.328 1.416,-2.868 1.008,-3.24 0.612,-3.612 0.012,-3.828 -0.78,-3.828 c -2.184,0 -2.472,1.332 -2.472,3.228 0,1.656 0.24,3.072 2.472,3.072 2.28,0 2.532,-1.476 2.472,-3.42 l -3.24,0 z"
             style="fill:#ffffff;fill-opacity:1;fill-rule:nonzero;stroke:none"
             id="path44" /></g><g
           id="g46"
           transform="translate(48.2524,14.9399)"><path
             d="m 0,0 0,8.664 1.691,0 0,-5.16 0.025,0 1.524,2.556 1.764,0 L 3.288,3.36 5.195,0 3.288,0 1.716,3.3 1.691,3.3 1.691,0 0,0 z"
             style="fill:#ffffff;fill-opacity:1;fill-rule:nonzero;stroke:none"
             id="path48" /></g><g
           id="g50"
           transform="translate(53.604,21)"><path
             d="m 0,0 0.685,0 0,0.959 1.691,0.756 0,-1.715 0.876,0 0,-1.044 -0.876,0 0,-3.24 c 0,-0.456 -0.012,-0.756 0.54,-0.756 0.108,0 0.216,0 0.3,0.024 l 0,-1.044 C 2.988,-6.084 2.748,-6.12 2.34,-6.12 c -1.464,0 -1.655,0.972 -1.655,1.344 l 0,3.732 L 0,-1.044 0,0 z"
             style="fill:#ffffff;fill-opacity:1;fill-rule:nonzero;stroke:none"
             id="path52" /></g><g
           id="g54"
           transform="translate(59.4722,21)"><path
             d="m 0,0 0,-0.78 0.024,0 c 0.312,0.696 0.888,0.9 1.572,0.9 l 0,-1.512 C 0.107,-1.296 0.084,-2.16 0.084,-2.76 l 0,-3.3 -1.692,0 0,6.06 L 0,0 z"
             style="fill:#ffffff;fill-opacity:1;fill-rule:nonzero;stroke:none"
             id="path56" /></g><g
           id="g58"
           transform="translate(64.728,18.144)"><path
             d="M 0,0 C 0,1.26 -0.061,1.896 -0.78,1.896 -1.5,1.896 -1.561,1.26 -1.561,0 c 0,-1.848 0.157,-2.244 0.781,-2.244 C -0.156,-2.244 0,-1.848 0,0 m -3.252,-0.096 c 0,1.656 0.24,3.072 2.472,3.072 2.231,0 2.471,-1.416 2.471,-3.072 0,-1.896 -0.287,-3.228 -2.471,-3.228 -2.184,0 -2.472,1.332 -2.472,3.228"
             style="fill:#ffffff;fill-opacity:1;fill-rule:nonzero;stroke:none"
             id="path60" /></g><path
           d="m 69.216,14.94 -1.692,0 0,8.664 1.692,0 0,-8.664 z"
           style="fill:#ffffff;fill-opacity:1;fill-rule:nonzero;stroke:none"
           id="path62" /><path
           d="m 72.312,14.94 -1.691,0 0,6.06 1.691,0 0,-6.06 z m 0,7.331 -1.691,0 0,1.332 1.691,0 0,-1.332 z"
           style="fill:#ffffff;fill-opacity:1;fill-rule:nonzero;stroke:none"
           id="path64" /><g
           id="g66"
           transform="translate(75.5034,20.3877)"><path
             d="m 0,0 0.024,0 c 0.168,0.276 0.372,0.456 0.6,0.564 0.24,0.12 0.516,0.168 0.828,0.168 0.804,0 1.513,-0.48 1.513,-1.32 l 0,-4.86 -1.694,0 0,4.176 c 0,0.54 -0.095,0.96 -0.635,0.96 C 0.097,-0.312 0,-0.732 0,-1.272 l 0,-4.176 -1.691,0 0,6.06 L 0,0.612 0,0 z"
             style="fill:#ffffff;fill-opacity:1;fill-rule:nonzero;stroke:none"
             id="path68" /></g><g
           id="g70"
           transform="translate(82.6792,18.6479)"><path
             d="M 0,0 C 0,0.588 0.024,1.428 -0.78,1.428 -1.56,1.428 -1.548,0.516 -1.548,0 L 0,0 z m -1.548,-0.948 c 0,-0.72 0.025,-1.8 0.768,-1.8 0.6,0 0.72,0.576 0.72,1.08 l 1.716,0 C 1.633,-2.328 1.417,-2.868 1.009,-3.24 0.612,-3.612 0.013,-3.828 -0.78,-3.828 c -2.183,0 -2.472,1.332 -2.472,3.228 0,1.656 0.24,3.072 2.472,3.072 2.28,0 2.532,-1.476 2.472,-3.42 l -3.24,0 z"
             style="fill:#ffffff;fill-opacity:1;fill-rule:nonzero;stroke:none"
             id="path72" /></g></g></g></g></svg>