<?xml version="1.0" encoding="UTF-8" standalone="no"?>
<!-- Created with Inkscape (http://www.inkscape.org/) -->

<svg
   xmlns:dc="http://purl.org/dc/elements/1.1/"
   xmlns:cc="http://creativecommons.org/ns#"
   xmlns:rdf="http://www.w3.org/1999/02/22-rdf-syntax-ns#"
   xmlns:svg="http://www.w3.org/2000/svg"
   xmlns="http://www.w3.org/2000/svg"
   xmlns:sodipodi="http://sodipodi.sourceforge.net/DTD/sodipodi-0.dtd"
   xmlns:inkscape="http://www.inkscape.org/namespaces/inkscape"
   id="svg2"
   version="1.1"
   inkscape:version="0.48.4 r9939"
   width="256"
   height="256"
   xml:space="preserve"
   sodipodi:docname="eline.svg"
   inkscape:export-filename="/home/fanda/proj/eyas/eyasdisp/images/eyas.png"
   inkscape:export-xdpi="90"
   inkscape:export-ydpi="90"><metadata
     id="metadata8"><rdf:RDF><cc:Work
         rdf:about=""><dc:format>image/svg+xml</dc:format><dc:type
           rdf:resource="http://purl.org/dc/dcmitype/StillImage" /><dc:title></dc:title></cc:Work></rdf:RDF></metadata><defs
     id="defs6"><clipPath
       clipPathUnits="userSpaceOnUse"
       id="clipPath16"><path
         d="m 0,38.264 93.223,0 L 93.223,0 0,0 0,38.264 z"
         id="path18"
         inkscape:connector-curvature="0" /></clipPath></defs><sodipodi:namedview
     pagecolor="#ffffff"
     bordercolor="#666666"
     borderopacity="1"
     objecttolerance="10"
     gridtolerance="10"
     guidetolerance="10"
     inkscape:pageopacity="0"
     inkscape:pageshadow="2"
     inkscape:window-width="1920"
     inkscape:window-height="1025"
     id="namedview4"
     showgrid="false"
     inkscape:zoom="2.4860459"
     inkscape:cx="75.800539"
     inkscape:cy="101.31884"
     inkscape:window-x="2877"
     inkscape:window-y="-3"
     inkscape:window-maximized="1"
     inkscape:current-layer="g10"
     fit-margin-top="0"
     fit-margin-left="0"
     fit-margin-right="0"
     fit-margin-bottom="0" /><g
     id="g10"
     inkscape:groupmode="layer"
     inkscape:label="ELL_logo_2_1"
     transform="matrix(1.25,0,0,-1.25,91.613003,167.66697)"><g
       id="g12"
       transform="matrix(8.3855382,0,0,8.4809872,-100.12664,-122.53502)"
       inkscape:export-filename="/home/fanda/proj/eyas/eyasdisp/images/eyas.png"
       inkscape:export-xdpi="38.919998"
       inkscape:export-ydpi="38.919998"><g
         id="g14"
         clip-path="url(#clipPath16)"><g
           id="g20"
           transform="translate(91.5103,0)"><path
             d="m -65.6,6.1158677 c 0.942,0 1.713,0.769 1.713,1.712 l 0,20.7231323 c 0,0.942 -0.771,1.713 -1.713,1.713 l -20.999,0 c -0.942,0 -1.711,-0.771 -1.711,-1.713 l 0,-20.7231323 c 0,-0.943 0.769,-1.712 1.711,-1.712 z"
             style="fill:#1b5c29;fill-opacity:1;fill-rule:nonzero;stroke:none"
             id="path22"
             inkscape:connector-curvature="0"
             sodipodi:nodetypes="sssssssss" /></g><g
           id="g24"
           transform="translate(25.1421,24.6841)"><path
             d="m -1.6473554,-1.4579339 -12.0459996,-5.24 c -0.35,-0.151 -0.636,-0.583 -0.636,-0.965 l 0,-3.9960001 3.019,-3.451 0,4.806 c 0,0.302 0.227,0.6740001 0.498,0.8130001 l 12.2249996,6.255 -3.012,1.8 z"
             style="fill:#ffffff;fill-opacity:1;fill-rule:nonzero;stroke:none"
             id="path26"
             inkscape:connector-curvature="0"
             sodipodi:nodetypes="ccsccscccc" /></g><g
           id="g28"
           transform="translate(18.5757,25.1235)"><path
             d="m -1.6473554,-1.4579339 -8.8369996,-2.675 c -0.371,-0.114 -0.673,-0.52 -0.673,-0.907 l 0,-3.146 2.0129996,-2.3230001 0,3.7670001 c 0,0.298 0.236,0.638 0.514,0.742 l 8.90900003,3.345 -1.87900003,1.209 z"
             style="fill:#ffffff;fill-opacity:1;fill-rule:nonzero;stroke:none"
             id="path30"
             inkscape:connector-curvature="0"
             sodipodi:nodetypes="ccsccscccc" /></g><g
           id="g32"
           transform="translate(19.6582,27.8301)"><path
             d="m -1.6473554,-1.4579339 -12.3119996,-3.326 c -0.375,-0.1 -0.68,-0.498 -0.68,-0.888 l -10e-4,-2.464 1.519,-1.753 0,3.118 c 0,0.296 0.237,0.611 0.521,0.689 l 12.85399963,3.598 -1.85900003,1.038 z"
             style="fill:#ffffff;fill-opacity:1;fill-rule:nonzero;stroke:none"
             id="path34"
             inkscape:connector-curvature="0"
             sodipodi:nodetypes="cccccscccc" /></g><g
           id="g36"
           transform="translate(33.2764,14.9399)" /><g
           id="g42"
           transform="translate(45.3965,18.6479)" /><g
           id="g46"
           transform="translate(48.2524,14.9399)" /><g
           id="g50"
           transform="translate(53.604,21)" /><g
           id="g54"
           transform="translate(59.4722,21)" /><g
           id="g58"
           transform="translate(64.728,18.144)" /><g
           id="g66"
           transform="translate(75.5034,20.3877)" /><g
           id="g70"
           transform="translate(82.6792,18.6479)" /></g></g></g></svg>